<?xml version="1.0" encoding="utf-8"?>
<!-- Generator: Adobe Illustrator 22.0.0, SVG Export Plug-In . SVG Version: 6.00 Build 0)  -->
<svg version="1.1" id="Layer_1" xmlns="http://www.w3.org/2000/svg" xmlns:xlink="http://www.w3.org/1999/xlink" x="0px" y="0px"
	 viewBox="0 0 20 20" style="enable-background:new 0 0 20 20;" xml:space="preserve">
<style type="text/css">
	.st0{fill:#869497;}
	.st1{fill:none;stroke:#869497;stroke-width:1.2;}
</style>
<g>
	<path class="st0" d="M15.3,4.7c-0.5,0-0.8-0.4-0.8-0.9c0-0.4,0.4-0.8,0.8-0.8c0.5,0,0.8,0.4,0.8,0.9C16.1,4.3,15.8,4.7,15.3,4.7"/>
	<path class="st1" d="M14.6,18.6c2.2,0,4-1.8,4-4v0v-10c0-2.2-1.8-4-4-4h-10c-2.2,0-4,1.8-4,4v10c0,2.2,1.8,4,4,4c0,0,0,0,0,0H14.6
		L14.6,18.6z"/>
	<path class="st1" d="M14.6,9.6c0,2.8-2.2,5-5,5c-2.8,0-5-2.2-5-5l0,0c0-2.8,2.2-5,5-5S14.6,6.8,14.6,9.6z"/>
</g>
</svg>
